<svg width="345" height="160" viewBox="0 0 345 160" fill="none" xmlns="http://www.w3.org/2000/svg">
<g clip-path="url(#clip0_57_12)">
<path d="M42.739 118.301C17.5689 122.962 -0.736516 127.884 0.0196648 129.44C0.510691 130.735 7.90064 137.982 16.798 145.755L32.8153 159.995L44.7669 154.043C76.2908 138.243 122.054 136.172 155.616 148.601C175.193 156.104 173.666 152.748 150.784 138.763C128.163 125.033 107.058 119.081 75.7703 118.041C61.0395 117.525 46.3087 117.525 42.739 118.301Z" fill="#33669A"/>
<path d="M269.235 118.041C237.966 119.081 216.862 125.043 194.235 138.763C171.353 152.768 169.826 156.114 189.404 148.601C222.965 136.172 268.729 138.243 300.253 154.043L312.204 159.995L328.202 145.77C337.099 137.997 344.47 130.765 344.98 129.455C345.741 127.899 327.436 122.952 302.261 118.316C298.696 117.525 283.965 117.525 269.235 118.041Z" fill="#33669A"/>
<path d="M251.426 78.1109L251.428 78.1101C258.214 75.1906 265.043 72.3924 270.619 70.2551C273.408 69.1862 275.878 68.2851 277.869 67.6173C279.883 66.9419 281.345 66.527 282.152 66.4004L282.168 66.3978L282.184 66.3947C294.739 63.9944 305.706 62.2821 313.503 61.3855C317.406 60.9365 320.49 60.6951 322.572 60.6701C323.517 60.6588 324.211 60.6929 324.669 60.7592C324.66 60.7895 324.65 60.8211 324.639 60.8538C324.518 61.2346 324.334 61.7349 324.09 62.3472C323.602 63.5695 322.891 65.1913 322.001 67.1078C320.223 70.9383 317.749 75.91 314.965 81.1487L314.961 81.156L305.303 99.6923L292.715 98.5335C257.447 95.2456 213.721 110.034 186.518 134.031L186.518 134.031L186.509 134.04C182.603 137.571 179.729 139.949 177.871 141.214C177.526 141.448 177.233 141.633 176.986 141.776C177.097 141.529 177.241 141.236 177.426 140.891C177.947 139.919 178.721 138.659 179.759 137.105C181.834 133.999 184.92 129.778 189.031 124.439C205.239 103.521 222.711 90.3982 251.426 78.1109ZM176.056 142.194C176.056 142.194 176.061 142.193 176.071 142.192C176.06 142.194 176.056 142.194 176.056 142.194ZM176.666 142.731C176.666 142.739 176.666 142.743 176.666 142.743C176.666 142.743 176.665 142.739 176.666 142.731Z" fill="#9BBEE4" stroke="#21409A" stroke-width="2"/>
<path d="M226.707 41.0541C203.236 62.1313 190.67 80.4026 181.832 105.661C172.92 131.28 173.848 134.866 184.253 116.385C202.372 85.0392 238.963 56.9646 273.128 48.7067L286.067 45.5557L289.504 24.1833C291.512 12.4243 292.666 2.0507 292.249 0.720239C291.871 -0.970342 274.675 7.10244 252.348 19.8268C249.127 21.5324 237.755 31.0957 226.707 41.0541Z" fill="white" stroke="#21409A" stroke-width="2" stroke-miterlimit="10"/>
<path d="M92.4652 19.8268C70.1382 7.10244 52.9474 -0.970342 52.5644 0.720239C52.147 2.0507 53.3009 12.4243 55.3092 24.1833L58.7464 45.5557L71.685 48.7067C105.87 56.9646 142.461 85.0392 160.561 116.385C170.966 134.866 171.894 131.28 162.981 105.661C154.109 80.4026 141.553 62.1464 118.082 41.0541C107.063 31.0957 95.6912 21.5324 92.4652 19.8268Z" fill="white" stroke="#21409A" stroke-width="2" stroke-miterlimit="10"/>
<path d="M62.6341 66.3947L62.6508 66.3979L62.6676 66.4005C63.4786 66.5272 64.9427 66.942 66.957 67.6171C68.9487 68.2846 71.4171 69.1853 74.2046 70.2533C79.7784 72.3888 86.6021 75.1832 93.3918 78.0956L93.3926 78.0959C122.107 90.383 139.58 103.526 155.783 124.424C159.894 129.764 162.981 133.984 165.057 137.09C166.096 138.645 166.871 139.905 167.393 140.877C167.577 141.22 167.721 141.512 167.832 141.758C167.587 141.615 167.295 141.432 166.953 141.199C165.094 139.934 162.219 137.555 158.309 134.024L158.301 134.016C131.112 110.034 87.3713 95.2306 52.108 98.5385C52.1079 98.5386 52.1077 98.5386 52.1076 98.5386L39.5201 99.6973L29.8623 81.1561L29.8624 81.1561L29.8581 81.148C27.0711 75.9142 24.5911 70.9426 22.8103 67.1111C21.9192 65.194 21.2076 63.5718 20.7208 62.3493C20.4769 61.737 20.2944 61.2372 20.1744 60.8572C20.1638 60.8236 20.1538 60.7912 20.1444 60.7601C20.6025 60.6932 21.2992 60.6587 22.2482 60.6701C24.3309 60.6951 27.4141 60.9365 31.3175 61.3855C39.1138 62.2821 50.0798 63.9944 62.6341 66.3947ZM168.156 142.73C168.156 142.729 168.156 142.725 168.156 142.718C168.156 142.726 168.156 142.73 168.156 142.73ZM168.752 142.178C168.762 142.178 168.767 142.179 168.767 142.179C168.768 142.179 168.763 142.179 168.752 142.178Z" fill="#9BBEE4" stroke="#21409A" stroke-width="2"/>
</g>
<defs>
<clipPath id="clip0_57_12">
<rect width="345" height="160" fill="white"/>
</clipPath>
</defs>
</svg>
